<svg xmlns="http://www.w3.org/2000/svg" viewBox="0 0 512 512" role="img" aria-labelledby="title desc">
  <title id="title">Gears POP! icon</title>
  <desc id="desc">Self-hosted replacement icon for Gears POP!</desc>
  <defs>
    <linearGradient id="bg" x1="0%" y1="0%" x2="100%" y2="100%">
      <stop offset="0%" stop-color="#0f172a" />
      <stop offset="58%" stop-color="#1f2937" />
      <stop offset="100%" stop-color="#b91c1c" />
    </linearGradient>
    <radialGradient id="glow" cx="50%" cy="38%" r="58%">
      <stop offset="0%" stop-color="#fca5a5" stop-opacity="0.85" />
      <stop offset="100%" stop-color="#fca5a5" stop-opacity="0" />
    </radialGradient>
  </defs>
  <rect width="512" height="512" rx="112" fill="url(#bg)" />
  <circle cx="256" cy="180" r="132" fill="url(#glow)" />
  <g fill="#f8fafc" transform="translate(256 198)">
    <rect x="-13" y="-124" width="26" height="42" rx="9" />
    <rect x="-13" y="-124" width="26" height="42" rx="9" transform="rotate(45)" />
    <rect x="-13" y="-124" width="26" height="42" rx="9" transform="rotate(90)" />
    <rect x="-13" y="-124" width="26" height="42" rx="9" transform="rotate(135)" />
    <rect x="-13" y="-124" width="26" height="42" rx="9" transform="rotate(180)" />
    <rect x="-13" y="-124" width="26" height="42" rx="9" transform="rotate(225)" />
    <rect x="-13" y="-124" width="26" height="42" rx="9" transform="rotate(270)" />
    <rect x="-13" y="-124" width="26" height="42" rx="9" transform="rotate(315)" />
    <circle r="84" fill="none" stroke="#f8fafc" stroke-width="28" />
    <circle r="28" fill="#f8fafc" />
  </g>
  <text
    x="256"
    y="414"
    fill="#ffffff"
    font-family="Outfit, Manrope, Arial, sans-serif"
    font-size="78"
    font-weight="800"
    letter-spacing="2"
    text-anchor="middle"
  >POP!</text>
</svg>
